<?xml version="1.0" encoding="utf-8"?>
<!-- Generator: Adobe Illustrator 27.0.0, SVG Export Plug-In . SVG Version: 6.00 Build 0)  -->
<svg version="1.1" id="Layer_1" xmlns="http://www.w3.org/2000/svg" xmlns:xlink="http://www.w3.org/1999/xlink" x="0px" y="0px"
	 viewBox="0 0 843.82 780.04" style="enable-background:new 0 0 843.82 780.04;" xml:space="preserve">
<style type="text/css">
	.st0{fill:none;}
	.st1{fill:#053C48;}
	.st2{fill:#E30613;}
</style>
<g>
	<path class="st0" d="M579.93,455.2H392.54c-14.49,0-26.34-11.85-26.34-26.34v-0.02c0-14.49,11.85-26.35,26.34-26.35h168.48
		c-1.04-7.03-1.57-14.19-1.57-21.43c0-13.28,1.79-26.29,5.25-38.75H328.1c-14.5,0-26.35-11.85-26.35-26.35v-0.01
		c0-14.49,11.85-26.35,26.35-26.35H592.2c2.96-3.59,6.1-7.06,9.44-10.39c26.37-26.37,61.16-41.25,98.31-42.14l3.53-14.13H198.4
		l39.21,235.26c5.97,35.86,7.23,80.96,57.41,80.96h289.86c28.51,0,40.59-14.21,47.49-32.79c-11.12-6.33-21.45-14.19-30.74-23.48
		C593.19,474.47,585.93,465.17,579.93,455.2z"/>
	<path class="st1" d="M535.21,637.12c-29.09,0-52.71,23.61-52.71,52.71c0,29.09,23.61,52.7,52.71,52.7
		c29.09,0,52.69-23.61,52.69-52.7C587.92,660.73,564.3,637.12,535.21,637.12z"/>
	<path class="st1" d="M333.33,637.12c-29.09,0-52.71,23.61-52.71,52.71c0.01,29.09,23.61,52.7,52.71,52.7
		c29.1,0,52.7-23.61,52.7-52.7C386.03,660.73,362.42,637.12,333.33,637.12z"/>
	<path class="st1" d="M584.88,539.18H295.03c-50.18,0-51.44-45.1-57.41-80.96L198.4,222.96h505.07l-3.53,14.13
		c1.18-0.03,2.35-0.04,3.53-0.04c16.32,0,32.22,2.71,47.2,7.89l8.3-33.21c5-19.99,6.23-41.46-19.58-41.46H188.83L174.02,60.3
		c-2.14-15.93-11.02-22.77-26.78-22.77H38.68c-14.56,0-26.35,11.82-26.35,26.37c0,14.56,11.78,26.35,26.35,26.35l85.94-0.01
		l61.57,374.7c10.26,64.49,25.03,126.95,108.84,126.95l289.86-0.01c59.55,0,81.91-29.82,95.21-68.67
		c-16.87-2.74-32.98-8.42-47.72-16.82C625.47,524.96,613.39,539.18,584.88,539.18z"/>
	<path class="st1" d="M328.1,289.62c-14.5,0-26.35,11.85-26.35,26.35v0.01c0,14.49,11.85,26.35,26.35,26.35H564.7
		c5.33-19.21,14.64-37.11,27.5-52.71H328.1z"/>
	<path class="st1" d="M392.54,402.5c-14.49,0-26.34,11.86-26.34,26.35v0.02c0,14.49,11.85,26.34,26.34,26.34h187.39
		c-9.71-16.11-16.13-33.96-18.91-52.71H392.54z"/>
	<path class="st2" d="M686.81,289.62l9.09-36.34c-31.86,1.86-60.59,15.37-82,36.34H686.81z"/>
	<path class="st2" d="M645.4,455.2h-46.32c10.11,14.21,23.04,26.26,37.99,35.34c1.95-7.99,3.56-16.25,5.54-24.16L645.4,455.2z"/>
	<path class="st2" d="M684.86,507.74c6.08,0.88,12.29,1.35,18.61,1.35c70.7,0,128.02-57.32,128.02-128.02
		c0-55.51-35.33-102.76-84.72-120.51l-52.45,209.8C691.16,483.02,688.25,495.66,684.86,507.74z"/>
	<path class="st2" d="M577.24,402.5h81.34l15.04-60.17h-92.2c-3.88,12.22-5.98,25.24-5.98,38.75
		C575.45,388.37,576.07,395.53,577.24,402.5z"/>
	<path class="st2" d="M613.9,289.62c-14.78,14.48-26.06,32.5-32.47,52.71h92.2l-15.04,60.17h-81.34
		c3.27,19.4,10.89,37.32,21.84,52.71h46.32l-2.79,11.19c-1.98,7.91-3.59,16.17-5.54,24.16c14.33,8.71,30.5,14.68,47.79,17.19
		c3.38-12.08,6.29-24.72,9.46-37.38l52.45-209.8c-13.52-4.86-28.1-7.51-43.3-7.51c-2.55,0-5.07,0.08-7.58,0.23l-9.09,36.34H613.9z"
		/>
</g>
</svg>
