<?xml version="1.0" encoding="utf-8"?>
<!-- Generator: Adobe Illustrator 27.0.0, SVG Export Plug-In . SVG Version: 6.00 Build 0)  -->
<svg version="1.1" id="Layer_1" xmlns="http://www.w3.org/2000/svg" xmlns:xlink="http://www.w3.org/1999/xlink" x="0px" y="0px"
	 viewBox="0 0 843.82 780.04" style="enable-background:new 0 0 843.82 780.04;" xml:space="preserve">
<style type="text/css">
	.st0{fill-rule:evenodd;clip-rule:evenodd;fill:#053C48;}
</style>
<g>
	<path class="st0" d="M547.04,652.62c-29.09,0-52.71,23.61-52.71,52.71c0,29.09,23.61,52.7,52.71,52.7
		c29.09,0,52.69-23.61,52.69-52.7C599.75,676.23,576.13,652.62,547.04,652.62z"/>
	<path class="st0" d="M345.16,652.62c-29.09,0-52.71,23.61-52.71,52.71c0.01,29.09,23.61,52.7,52.71,52.7
		c29.1,0,52.7-23.61,52.7-52.7C397.86,676.23,374.25,652.62,345.16,652.62z"/>
	<path class="st0" d="M751.23,185.77H200.66L185.85,75.81c-2.14-15.93-11.02-22.77-26.78-22.77H50.51
		c-14.57,0-26.35,11.82-26.35,26.37c0,14.56,11.78,26.35,26.35,26.35l85.94-0.01l61.57,374.7
		c10.26,64.49,25.03,126.95,108.84,126.95l289.86-0.01c84.87,0,94.2-60.57,109.43-121.51l64.66-258.64
		C775.81,207.24,777.04,185.77,751.23,185.77z M698.64,305.13h-358.7c-14.5,0-26.35,11.85-26.35,26.35v0.01
		c0,14.49,11.85,26.35,26.35,26.35h345.53l-15.04,60.17H404.37c-14.49,0-26.34,11.86-26.34,26.35v0.02
		c0,14.49,11.85,26.34,26.34,26.34h252.87l-2.79,11.19c-8.33,33.34-10.23,72.79-57.73,72.79H306.86c-50.18,0-51.44-45.1-57.41-80.96
		l-39.21-235.26H715.3L698.64,305.13z"/>
</g>
</svg>
