<?xml version="1.0" encoding="utf-8"?>
<!-- Generator: Adobe Illustrator 27.0.0, SVG Export Plug-In . SVG Version: 6.00 Build 0)  -->
<svg version="1.1" xmlns="http://www.w3.org/2000/svg" xmlns:xlink="http://www.w3.org/1999/xlink" x="0px" y="0px"
	 viewBox="0 0 881.73 881.73" style="enable-background:new 0 0 881.73 881.73;" xml:space="preserve">
<style type="text/css">
	.st0{fill:#DD3737;}
	.st1{fill:#FFFFFF;}
</style>
<g id="background">
</g>
<g id="Objects">
	<g>
		<circle class="st0" cx="440.86" cy="440.86" r="440.86"/>
		<g>
			<path class="st1" d="M257.37,308.03l41.4,338.09c2.43,19.86,19.3,34.79,39.31,34.79h205.55c20.01,0,36.88-14.93,39.31-34.79
				l41.4-338.09H257.37z M371.1,626.85c-0.32,0.03-0.64,0.04-0.96,0.04c-6.04,0-11.17-4.64-11.66-10.77l-19.57-241.39
				c-0.52-6.45,4.28-12.1,10.73-12.62c6.44-0.52,12.09,4.28,12.62,10.73l19.57,241.38C382.35,620.67,377.55,626.32,371.1,626.85z
				 M452.58,615.17c0,6.47-5.24,11.71-11.71,11.71c-6.47,0-11.71-5.24-11.71-11.71V373.78c0-6.47,5.24-11.71,11.71-11.71
				c6.47,0,11.71,5.25,11.71,11.71V615.17z M542.82,374.73l-19.57,241.39c-0.49,6.12-5.62,10.77-11.66,10.77
				c-0.32,0-0.64-0.01-0.96-0.04c-6.45-0.52-11.25-6.17-10.73-12.62l19.57-241.38c0.52-6.45,6.18-11.25,12.62-10.73
				C538.54,362.63,543.34,368.28,542.82,374.73z"/>
			<path class="st1" d="M639.9,253.01H533.4c-4.79,0-9.06-3.03-10.63-7.56l-8.38-24.06c-4.29-12.31-15.93-20.59-28.97-20.59h-89.08
				c-13.04,0-24.68,8.27-28.97,20.59l-8.38,24.06c-1.58,4.52-5.84,7.56-10.63,7.56h-106.5c-5.39,0-9.76,4.37-9.76,9.76v18.76
				c0,5.39,4.37,9.76,9.76,9.76H639.9c5.39,0,9.76-4.37,9.76-9.76v-18.76C649.66,257.38,645.29,253.01,639.9,253.01z M393.27,230.63
				c0.67-1.94,2.51-3.24,4.56-3.24h86.07c2.05,0,3.88,1.3,4.56,3.24l7.8,22.38H385.47L393.27,230.63z"/>
		</g>
	</g>
</g>
</svg>
